<mxfile host="app.diagrams.net" modified="2023-10-07T09:46:03.330Z" agent="Mozilla/5.0 (Windows NT 10.0; Win64; x64) AppleWebKit/537.36 (KHTML, like Gecko) Chrome/117.0.0.0 Safari/537.36" etag="u5Wg8dci2aI9eU_jkOYr" version="22.0.4" type="device">
  <diagram name="Page-1" id="vtuu7sUxKyb3fItVg6ei">
    <mxGraphModel dx="880" dy="426" grid="1" gridSize="10" guides="1" tooltips="1" connect="1" arrows="1" fold="1" page="1" pageScale="1" pageWidth="827" pageHeight="1169" math="0" shadow="0">
      <root>
        <mxCell id="0" />
        <mxCell id="1" parent="0" />
        <mxCell id="WKzA_RELbgtaRNRv_euk-7" style="edgeStyle=orthogonalEdgeStyle;rounded=0;orthogonalLoop=1;jettySize=auto;html=1;exitX=1;exitY=0.5;exitDx=0;exitDy=0;entryX=0;entryY=0.5;entryDx=0;entryDy=0;" edge="1" parent="1" source="WKzA_RELbgtaRNRv_euk-1" target="WKzA_RELbgtaRNRv_euk-3">
          <mxGeometry relative="1" as="geometry" />
        </mxCell>
        <mxCell id="WKzA_RELbgtaRNRv_euk-8" style="edgeStyle=orthogonalEdgeStyle;rounded=0;orthogonalLoop=1;jettySize=auto;html=1;entryX=0;entryY=0.5;entryDx=0;entryDy=0;" edge="1" parent="1" source="WKzA_RELbgtaRNRv_euk-1" target="WKzA_RELbgtaRNRv_euk-4">
          <mxGeometry relative="1" as="geometry" />
        </mxCell>
        <mxCell id="WKzA_RELbgtaRNRv_euk-9" style="edgeStyle=orthogonalEdgeStyle;rounded=0;orthogonalLoop=1;jettySize=auto;html=1;entryX=0;entryY=0.5;entryDx=0;entryDy=0;" edge="1" parent="1" source="WKzA_RELbgtaRNRv_euk-1" target="WKzA_RELbgtaRNRv_euk-5">
          <mxGeometry relative="1" as="geometry" />
        </mxCell>
        <mxCell id="WKzA_RELbgtaRNRv_euk-1" value="&lt;b&gt;&lt;font style=&quot;font-size: 16px;&quot;&gt;TrustBit Wallet System&lt;/font&gt;&lt;/b&gt;" style="ellipse;whiteSpace=wrap;html=1;" vertex="1" parent="1">
          <mxGeometry x="340" y="140" width="140" height="90" as="geometry" />
        </mxCell>
        <mxCell id="WKzA_RELbgtaRNRv_euk-6" style="edgeStyle=orthogonalEdgeStyle;rounded=0;orthogonalLoop=1;jettySize=auto;html=1;exitX=1;exitY=0.5;exitDx=0;exitDy=0;entryX=0;entryY=0.5;entryDx=0;entryDy=0;" edge="1" parent="1" source="WKzA_RELbgtaRNRv_euk-2" target="WKzA_RELbgtaRNRv_euk-1">
          <mxGeometry relative="1" as="geometry" />
        </mxCell>
        <mxCell id="WKzA_RELbgtaRNRv_euk-2" value="&lt;font style=&quot;font-size: 16px;&quot;&gt;Users&lt;/font&gt;" style="rounded=0;whiteSpace=wrap;html=1;" vertex="1" parent="1">
          <mxGeometry x="140" y="162.5" width="100" height="45" as="geometry" />
        </mxCell>
        <mxCell id="WKzA_RELbgtaRNRv_euk-3" value="&lt;font style=&quot;font-size: 16px;&quot;&gt;User details&lt;/font&gt;" style="rounded=0;whiteSpace=wrap;html=1;" vertex="1" parent="1">
          <mxGeometry x="590" y="80" width="100" height="47.5" as="geometry" />
        </mxCell>
        <mxCell id="WKzA_RELbgtaRNRv_euk-4" value="&lt;font style=&quot;font-size: 16px;&quot;&gt;Send Bitcoin&lt;/font&gt;" style="rounded=0;whiteSpace=wrap;html=1;" vertex="1" parent="1">
          <mxGeometry x="590" y="161.25" width="100" height="47.5" as="geometry" />
        </mxCell>
        <mxCell id="WKzA_RELbgtaRNRv_euk-5" value="&lt;font style=&quot;font-size: 16px;&quot;&gt;Receive Bitcoin&lt;/font&gt;" style="rounded=0;whiteSpace=wrap;html=1;" vertex="1" parent="1">
          <mxGeometry x="590" y="240" width="100" height="47.5" as="geometry" />
        </mxCell>
      </root>
    </mxGraphModel>
  </diagram>
</mxfile>
